<?xml version="1.0" encoding="utf-8"?>
<!-- Generator: Adobe Illustrator 27.5.0, SVG Export Plug-In . SVG Version: 6.00 Build 0)  -->
<svg version="1.1" id="Layer_1" xmlns="http://www.w3.org/2000/svg" xmlns:xlink="http://www.w3.org/1999/xlink" x="0px" y="0px"
	 viewBox="-24.062 -92.32 83.736 73.248" style="enable-background:new -24.062 -92.32 83.736 73.248;" xml:space="preserve">
<rect x="-24.062" y="-92.321" style="fill:#FFFFFF;" width="83.736" height="73.25"/>
<g>


	
		<linearGradient id="SVGID_00000105409546806604925830000017615926565395557795_" gradientUnits="userSpaceOnUse" x1="28.3666" y1="-53.5928" x2="6.7827" y2="-64.177">
		<stop  offset="0.3131" style="stop-color:#79AC78"/>
		<stop  offset="1" style="stop-color:#618264"/>
	</linearGradient>
	<path style="fill-rule:evenodd;clip-rule:evenodd;fill:url(#SVGID_00000105409546806604925830000017615926565395557795_);" d="
		M12.525-71.429c-6.808,3.955-9.633,9.6-7.881,14.482c1.61,4.555,8.615,6.927,27.88-0.546c-3.247,0.654-13.559,0.736-20.281-0.982
		C5.519-60.193,1.932-63.847,12.525-71.429L12.525-71.429z"/>
	
		<linearGradient id="SVGID_00000165934506944238485850000002418472013635905725_" gradientUnits="userSpaceOnUse" x1="15.7497" y1="-71.0548" x2="22.4992" y2="-51.3879">
		<stop  offset="0.3131" style="stop-color:#79AC78"/>
		<stop  offset="1" style="stop-color:#618264"/>
	</linearGradient>
	<path style="fill-rule:evenodd;clip-rule:evenodd;fill:url(#SVGID_00000165934506944238485850000002418472013635905725_);" d="
		M15.377-49.911c5.537,3.328,10.565,3.137,12.74-0.846c2.288-4.2-0.395-13.036-18.898-27.709
		c2.769,3.055,10.028,14.019,13.277,21.709C25.434-49.774,25.264-45.083,15.377-49.911L15.377-49.911z"/>
	
		<linearGradient id="SVGID_00000021094021950491112690000017707097699429384331_" gradientUnits="userSpaceOnUse" x1="7.8932" y1="-46.9928" x2="20.4768" y2="-67.8266">
		<stop  offset="0.3131" style="stop-color:#79AC78"/>
		<stop  offset="1" style="stop-color:#618264"/>
	</linearGradient>
	<path style="fill-rule:evenodd;clip-rule:evenodd;fill:url(#SVGID_00000021094021950491112690000017707097699429384331_);" d="
		M25.801-62.892c1.158-7.883-1.92-11.837-7.571-9.955C12.808-71.046,6.903-62.374,5.801-44.51c0.65-2.51,4.774-11.782,9.548-18.873
		C20.746-71.402,26.367-75.847,25.801-62.892L25.801-62.892z"/>
</g>
</svg>
